<svg xmlns="http://www.w3.org/2000/svg">
	<symbol id="attachment" viewBox="0 0 20 20">
		<path id="XMLID_51_" class="st0" d="M13.2,8l-6.6,6.5c0,0-2.4,0-2.2-2.4l10.1-9.9c0,0,4.4-0.3,4.7,4.5L7.5,18.6c0,0-6.7-0.1-6.8-6.5 l9.7-9.9"/>
	</symbol>
	
	<symbol id="newdiary" viewBox="0 0 20 20">
		<polyline class="st0" points="11.2,19.3 2.4,19.3 2.4,0.6 17.9,0.6 17.9,13.1 "/>
		<polyline class="st0" points="14.5,0.6 14.5,10.3 13.2,9 11.9,10.3 11.9,0.6 "/>
		<line class="st0" x1="4.2" y1="3.9" x2="0.3" y2="3.9"/>
		<line class="st0" x1="4.2" y1="7" x2="0.3" y2="7"/>
		<line class="st0" x1="4.2" y1="10.1" x2="0.3" y2="10.1"/>
		<line class="st0" x1="4.2" y1="13.1" x2="0.3" y2="13.1"/>
		<line class="st0" x1="4.2" y1="16.2" x2="0.3" y2="16.2"/>
		<line class="st0" x1="15.4" y1="14.4" x2="15.4" y2="19.3"/>
		<line class="st0" x1="13.2" y1="16.9" x2="17.5" y2="16.9"/>
	</symbol>
	
	<symbol id="workkardinfo" viewBox="0 0 20 20">
		<g id="XMLID_70_">
			<path id="XMLID_85_" class="st0" d="M0.5,3.5v13h19v-13H0.5z M1.5,13V7V13z M4.5,13V7V13z M5.5,16V4V16z M8,14.5h1H8z M8,12.5h1H8z
				 M10,14.5h1H10z M10,12.5h1H10z M12,14.5h1H12z M12,12.5h1H12z M14,14.5h1H14z M14,12.5h1H14z M16,14.5h1H16z M16,12.5h1H16z
				 M17.5,10.5h-10v-5h10V10.5z"/>
			<rect id="XMLID_99_" x="7.5" y="5.5" class="st0" width="10" height="5"/>
		</g>
	</symbol>
	
	<symbol id="orginvolved" viewBox="0 0 20 20">
		<rect id="XMLID_57_" x="6.2" y="0.8" class="st0" width="6.8" height="5.8"/>
		<rect id="XMLID_59_" x="12.3" y="13.2" class="st0" width="6.7" height="5.8"/>
		<rect id="XMLID_60_" x="1" y="13.2" class="st0" width="6.9" height="5.8"/>
		<polyline id="XMLID_61_" class="st0" points="4.5,13 4.5,10.5 15.5,10.5 15.5,13 "/>
		<line id="XMLID_62_" class="st0" x1="9.5" y1="7" x2="9.5" y2="10"/>
	</symbol>
	
	<symbol id="addnotes" viewBox="0 0 20 20">
		<polyline id="XMLID_140_" class="st0" points="14.7,14.6 14.7,19.4 1.3,19.4 1.3,0.6 9.9,0.6 14.7,5.5 14.7,6.9 "/>
		<polyline id="XMLID_134_" class="st0" points="9.5,1 9.5,5.5 15,5.5 "/>
		<polygon id="XMLID_138_" class="st0" points="14.6,8.6 8.7,14.8 7.7,17.4 10,16.8 16.4,10.4 "/>
		<polygon id="XMLID_137_" class="st0" points="17.3,5.9 16.1,7.2 18,8.9 19.1,7.7 "/>
	</symbol>
	
	<symbol id="cloneactivity" viewBox="0 0 20 20">
		<polyline id="XMLID_125_" class="st0" points="4.3,5.8 4.3,0.8 19.4,0.8 19.4,14 15.8,14 "/>
		<rect id="XMLID_127_" x="0.5" y="5.7" class="st0" width="15.1" height="13.1"/>
		<g id="XMLID_126_">
		<line id="XMLID_128_" class="st0" x1="9.5" y1="10" x2="9.5" y2="17"/>
		<line id="XMLID_129_" class="st0" x1="6" y1="13.5" x2="13" y2="13.5"/>
		</g>
	</symbol>
	
		<symbol id="addactivity" viewBox="0 0 20 20">
			<circle id="XMLID_119_" class="st0" cx="9.8" cy="9.8" r="9.3"/>
			<line id="XMLID_121_" class="st0" x1="9.5" y1="5" x2="9.5" y2="14"/>
			<line id="XMLID_122_" class="st0" x1="14" y1="9.5" x2="5" y2="9.5"/>
	</symbol>
	
	<symbol id="newdiaries" viewBox="0 0 20 20">
		<polyline class="st0" points="5.8,6.2 7.6,5 7.6,13.8 "/>
		<polyline class="st0" points="10.8,6.2 12.6,5 12.6,9 "/>
		<g>
		<path class="st1" d="M14.8,9"/>
		<path class="st0" d="M10.4,17.3H1.9c-0.3,0-0.5-0.2-0.5-0.5v-15c0-0.3,0.2-0.5,0.5-0.5h14.8c0.3,0,0.5,0.2,0.5,0.5v8.1"/>
		<circle class="st2" cx="13.8" cy="13.7" r="5"/>
		</g>
		<line class="st2" x1="13.6" y1="11.4" x2="13.6" y2="16"/>
		<line class="st2" x1="11.3" y1="13.7" x2="15.9" y2="13.7"/>
	</symbol>
	
	<symbol id="email" viewBox="0 0 20 20">
		<g>
		<rect x="0.6" y="3.1" class="st0" width="19" height="14"/>
		<polyline class="st0" points="0.6,3.1 10.1,10.1 19.6,3.1 	"/>
		</g>
	</symbol>
	
	<symbol id="call" viewBox="0 0 20 20">
		<path class="st0" d="M1.3,16.5l-0.2-0.2c-0.4-0.4-0.3-1,0.1-1.4L4,12.3c0.4-0.4,1.1-0.4,1.6-0.1l0.7,0.6c1,0.8,2.4,0.7,3.3-0.1
		l3.8-3.4c0.8-0.7,0.9-1.8,0.4-2.7l-0.4-0.7c-0.3-0.5-0.2-1.1,0.2-1.5l2.8-2.9c0.4-0.4,0.9-0.4,1.3,0l0,0.1c2.8,3,2.6,7.6-0.3,10.3
		L11.8,17C8.8,19.8,4,19.6,1.3,16.5z"/>
	</symbol>
	
	<symbol id="manageprofile" viewBox="0 0 20 20">
		<polygon id="XMLID_163_" class="st0" points="10.8,3.1 0.8,3.1 0.8,19.2 16.6,19.2 16.6,8.6 10.5,14.6 3.6,16.2 4.9,9.7 "/>
		<polygon id="XMLID_161_" points="13.9,3 7.1,10.3 6.4,13.3 9,12.7 16.2,5.2 "/>
		<polygon id="XMLID_160_" points="15,1.9 17.3,4 18.7,2.5 16.5,0.4 "/>
	</symbol>
	
	<symbol id="logout" viewBox="0 0 20 20">
		<path id="XMLID_142_" class="st0" d="M14.4,3.9c2,1.5,3.4,3.9,3.4,6.6c0,4.5-3.6,8.2-8.2,8.2S1.4,15,1.4,10.5c0-2.6,1.2-4.9,3.1-6.4 "/>
		<polyline id="XMLID_145_" class="st0" points="9.5,1 9.5,9.7 9.5,10 "/>
	</symbol>
	
	<symbol id="search" viewBox="0 0 20 20">
		<g>
			<circle class="st0" cx="10.6" cy="6.8" r="5.9"/>
			<line class="st1" x1="6.7" y1="11.2" x2="1.5" y2="17"/>
		</g>
	</symbol>
	
	<symbol id="close" viewBox="0 0 20 20">
		<line class="st0" x1="0.7" y1="19.4" x2="19.6" y2="0.6"/>
		<line class="st0" x1="0.7" y1="0.6" x2="19.6" y2="19.4"/>
	</symbol>
	
	<symbol id="filter" viewBox="0 0 20 20">
	<polygon class="st0" points="11.6,15.5 11.8,10.4 17.7,1.7 2.3,1.7 8.2,10.7 8.1,18.2 "/>
	</symbol>
	
	<symbol id="list" viewBox="0 0 20 20">
		<rect x="8" y="0.6" class="st0" width="14.9" height="3.2"/>
		<rect x="8" y="6.6" class="st0" width="14.9" height="3"/>
		<rect x="8" y="12.3" class="st0" width="14.9" height="3"/>
	</symbol>
	
	<symbol id="dashboard" viewBox="0 0 20 20">
		<g>
			<path class="st0" d="M10.3,4.6C5.8,4.6,2,8.2,2,12.7V15h16.7l-0.1-2C18.5,8.5,14.9,4.6,10.3,4.6z M4.3,14.1c-0.6,0-1.1-0.5-1.1-1.1
				c0-0.6,0.5-1.1,1.1-1.1s1.1,0.5,1.1,1.1C5.4,13.5,4.9,14.1,4.3,14.1z M10,12.9c0.2,0.2,0.3,0.6,0.2,0.9c-0.1,0.4-0.8,0.8-1.3,0.4
				c-0.4-0.3-0.5-0.7-0.4-1.1c0.1-0.2,0.2-0.3,0.4-0.4L11.9,6L10,12.9z M5.7,10.5C5,10.5,4.5,10,4.5,9.3C4.5,8.6,5,8,5.7,8
				c0.7,0,1.2,0.5,1.2,1.2C6.9,10,6.4,10.5,5.7,10.5z M9.4,8C8.6,8,8,7.4,8,6.7s0.6-1.3,1.3-1.3s1.3,0.6,1.3,1.3S10.1,8,9.4,8z
				 M12.4,8.1c0-0.8,0.6-1.4,1.4-1.4c0.8,0,1.4,0.6,1.4,1.4s-0.6,1.4-1.4,1.4C13,9.5,12.4,8.9,12.4,8.1z M16,13.8
				c-0.9,0-1.7-0.7-1.7-1.7c0-0.9,0.7-1.7,1.7-1.7c0.9,0,1.7,0.7,1.7,1.7C17.7,13.1,16.9,13.8,16,13.8z"/>
		</g>
	</symbol>
	
	<symbol id="community" viewBox="0 0 20 20">
		<circle class="st0" cx="7.6" cy="6.9" r="2.2"/>
		<circle class="st0" cx="13.5" cy="6.9" r="1.7"/>
		<path class="st0" d="M12.7,14.6H2V13c0-1.5,1.2-2.7,2.7-2.7H10c1.5,0,2.7,1.2,2.7,2.7V14.6z"/>
		<path class="st0" d="M12.5,10.2c0,0,0.9,0,2,0.1c2.1,0.3,3.6,2.1,3.6,4.2v0h-3.7l0-0.7c0-1.1-0.4-2.2-1.2-3
		C13,10.7,12.7,10.5,12.5,10.2z"/>
	</symbol>
	
	<symbol id="bell" viewBox="0 0 20 20">
		<g>
			<path class="st0" d="M14.1,7c0-2.4-1.7-4.1-4.1-4.1S6,5,6,7.3V10l-2.2,3H16l-1.9-3.2L14.1,7z"/>
			<path class="st0" d="M7.8,14.5c0,0,4.4,0,4.4,0s-0.3,1.9-2.1,1.9C10.1,16.4,8.1,16.6,7.8,14.5z"/>
		</g>
		<circle class="st0" cx="9.8" cy="2.9" r="1.1"/>
	</symbol>
	
	<symbol id="setting" viewBox="0 0 20 20">
		<g>
			<path class="st0" d="M18.9,11.6c-0.9,0-1.6-0.7-1.6-1.6c0-0.9,0.7-1.6,1.6-1.6c0,0,0.1,0,0.1,0c-0.2-1.2-0.6-2.3-1.3-3.3
				c0,0,0,0.1-0.1,0.1c-0.6,0.6-1.6,0.5-2.2-0.1C14.9,4.5,15,3.5,15.6,3c0,0,0.1,0,0.1-0.1c-1.2-0.9-2.6-1.6-4.1-1.8c0,0,0,0.1,0,0.1
				c0,0.9-0.7,1.6-1.6,1.6C9.2,2.7,8.5,2,8.5,1.2c0,0,0-0.1,0-0.1C7.1,1.3,5.8,1.9,4.7,2.7c0,0,0.1,0,0.1,0.1c0.6,0.6,0.6,1.6,0,2.2
				c-0.6,0.6-1.6,0.6-2.2,0c0,0,0-0.1-0.1-0.1C1.8,5.9,1.3,7.2,1.1,8.5c0,0,0.1,0,0.1,0c0.9,0,1.6,0.7,1.6,1.6c0,0.9-0.7,1.6-1.6,1.6
				c0,0-0.1,0-0.1,0c0.2,1.2,0.6,2.3,1.3,3.3c0,0,0-0.1,0.1-0.1C3,14.3,4,14.3,4.6,14.9c0.6,0.6,0.5,1.6-0.1,2.2c0,0-0.1,0-0.1,0.1
				c1.2,0.9,2.6,1.6,4.1,1.8c0,0,0-0.1,0-0.1c0-0.9,0.7-1.6,1.6-1.6c0.9,0,1.6,0.7,1.6,1.6c0,0,0,0.1,0,0.1c1.4-0.2,2.7-0.8,3.8-1.6
				c0,0-0.1,0-0.1-0.1c-0.6-0.6-0.6-1.6,0-2.2c0.6-0.6,1.6-0.6,2.2,0c0,0,0,0.1,0.1,0.1c0.7-1.1,1.3-2.3,1.5-3.7
				C19,11.6,19,11.6,18.9,11.6z M10.1,13.4c-1.8,0-3.3-1.5-3.3-3.3c0-1.8,1.5-3.3,3.3-3.3s3.3,1.5,3.3,3.3
				C13.4,11.9,11.9,13.4,10.1,13.4z"/>
		</g>
	</symbol>
	
	<symbol id="faq" viewBox="0 0 20 20">
		<g>
			<path d="M10,0.4c-5.2,0-9.5,4.3-9.5,9.5c0,5.2,4.3,9.5,9.5,9.5s9.5-4.3,9.5-9.5C19.5,4.7,15.2,0.4,10,0.4z M11,15.1H9.2v-1.7H11
				V15.1z M13.1,7.8c-0.1,0.2-0.2,0.4-0.3,0.6c-0.1,0.2-0.3,0.4-0.4,0.5c-0.2,0.2-0.3,0.3-0.5,0.5c-0.1,0.1-0.2,0.3-0.4,0.4
				c-0.1,0.1-0.2,0.3-0.3,0.4c-0.1,0.1-0.2,0.3-0.2,0.4C11,10.9,11,11,11,11.2v1H9.2v-0.9c0-0.3,0-0.5,0.1-0.7
				c0.1-0.2,0.2-0.4,0.3-0.6c0.1-0.2,0.3-0.4,0.5-0.6c0.2-0.2,0.3-0.3,0.5-0.5c0.1-0.1,0.3-0.3,0.4-0.4c0.1-0.1,0.3-0.3,0.4-0.4
				c0.1-0.1,0.2-0.3,0.2-0.5c0.1-0.2,0.1-0.3,0.1-0.5c0-0.2,0-0.4-0.1-0.6c-0.1-0.2-0.2-0.4-0.3-0.5c-0.1-0.1-0.3-0.3-0.5-0.4
				c-0.2-0.1-0.4-0.1-0.7-0.1c-0.2,0-0.5,0.1-0.7,0.2C9.3,5.8,9.1,5.9,8.9,6.1C8.8,6.3,8.6,6.6,8.6,6.9c-0.1,0.3-0.1,0.6-0.2,1H6.9
				c0-0.5,0.1-1,0.3-1.5c0.2-0.4,0.4-0.8,0.7-1.1s0.6-0.6,1-0.7c0.4-0.2,0.8-0.3,1.3-0.3c0.6,0,1,0.1,1.4,0.2c0.4,0.2,0.7,0.4,1,0.7
				c0.2,0.3,0.4,0.6,0.5,0.9c0.1,0.3,0.2,0.7,0.2,1.1C13.2,7.4,13.2,7.6,13.1,7.8z"/>
		</g>
		
	</symbol>
	
	<symbol id="arrow" viewBox="0 0 20 20">
		<polyline class="st0" points="18.5,9.6 10.3,18.4 1.5,10.2 "/>
	</symbol>
	
	<symbol id="list" viewBox="0 0 20 20">
		<rect x="2.1" y="1.8" class="st0" width="15.8" height="3.3"/>
		<rect x="2.1" y="8.1" class="st0" width="15.8" height="3.2"/>
		<rect x="2.1" y="14.2" class="st0" width="15.8" height="3.2"/>
	</symbol>
	
	<symbol id="grid" viewBox="0 0 20 20">
		<rect x="2.3" y="2.1" class="st0" width="6.2" height="6.4"/>
		<rect x="11.8" y="2.1" class="st0" width="6.2" height="6.4"/>
		<rect x="2.3" y="11.9" class="st0" width="6.2" height="6.4"/>
		<rect x="11.8" y="11.9" class="st0" width="6.2" height="6.4"/>
	</symbol>
	
	<symbol id="clearsearch" viewBox="0 0 20 20">
		<line class="st0" x1="2.5" y1="17.2" x2="17.5" y2="2.8"/>
		<line class="st0" x1="17.5" y1="17.2" x2="2.5" y2="2.8"/>
	</symbol>
	
	<symbol id="sort" viewBox="0 0 20 20">
		<g>
			<path d="M12.7,5.5l-0.8,2.4h-1l2.6-7.6h1.2l2.6,7.6h-1l-0.8-2.4H12.7z M14.4,4.7c0.8,0.1,0.7-0.4,0.5-0.7l-0.5-1.4
				c-0.2-0.5-0.3-0.9-0.4-1.4h0c-0.1,0.4-0.2,0.9-0.4,1.4L13.2,4c-0.1,0.4-0.2,0.7,0.5,0.7H14.4z"/>
			<path d="M11,18.9l4.2-6.1v0h-3.8v-0.8h5.1v0.6l-4.2,6.1v0h4.2v0.8H11V18.9z"/>
		</g>
		<line class="st0" x1="4.6" y1="0.3" x2="4.6" y2="18.6"/>
		<polyline class="st0" points="1.8,15.9 4.6,18.9 7.6,15.9 "/>
	</symbol>
	<symbol id="sortdown" viewBox="0 0 20 20">
			<g>
			<path d="M14.3,17.2c-0.2,0-0.5,0.2-0.5,0.4l-0.7,2h-1l2.6-7.5h1.2l2.6,7.5h-1l-0.7-2c-0.1-0.2-0.3-0.4-0.5-0.4H14.3z M15.5,16.5
				c0.4,0,0.6-0.4,0.5-0.7l-0.5-1.4c-0.2-0.5-0.3-0.9-0.4-1.4h0c-0.1,0.4-0.2,0.9-0.4,1.4l-0.5,1.4c-0.1,0.4,0.1,0.7,0.5,0.7H15.5z"/>
			<path d="M12.1,7.4l4.2-6.1v0h-3.8V0.4h5.1V1l-4.1,6.1v0h4.2V8h-5.5V7.4z"/>
		</g>
		<g id="Layer_2">
		</g>
		<line class="st0" x1="5" y1="19.6" x2="5" y2="1.5"/>
		<polyline class="st0" points="2.4,4.1 5,1.2 8,4.1 "/>
	</symbol>
	<symbol id="followers" viewBox="0 0 20 20">
	<g>
			<path fill="none" stroke="#020202" stroke-miterlimit="10" d="M0.945,10.303c1.6-2.102,9.1-10.602,18.1-0.201
	c0.199,0.301,0.199,0.701,0,0.899c-2,1.9-10.701,9.1-18,0.1C0.744,10.902,0.744,10.602,0.945,10.303z"/>
	</g>
	<g id="Layer_2">
		</g>
<circle fill="none" stroke="#020202" stroke-miterlimit="10" cx="9.445" cy="10.101" r="2.599"/>
	</symbol>	

	<symbol id="arrow-down" viewBox="0 0 20 20">
        <polyline id="XMLID_1_" style="stroke-miterlimit:10;" points="0.4,4.4 10.1,14.9 19.8,4.2 "/>
    </symbol>
    
    <symbol id="arrow-up" viewBox="0 0 20 20">
        <polyline id="XMLID_1_" style="stroke-miterlimit:10;" points="19.8,14.7 10.1,4.2 0.4,14.9 "/>
    </symbol>
	
	<symbol id="edit" viewBox="0 0 16 16">
		<path class="st0" d="M4.1,16.7v-4.9c0,0,0-0.1,0-0.1l8.7-8.5c0.1-0.1,0.2-0.1,0.2,0l4.1,4.6c0.1,0.1,0.1,0.2,0,0.2l-8.3,8.8
		c0,0-0.1,0-0.1,0H4.2C4.2,16.9,4.1,16.8,4.1,16.7z"/>
		<path class="st0" d="M10.9,5.6l4.2,4.3L10.9,5.6z"/>
	</symbol>
	
	<symbol id="discard" viewBox="0 0 16 16">
	<path class="cls-1" d="M8.07,0.89a7.25,7.25,0,1,0,7.25,7.25A7.25,7.25,0,0,0,8.07.89Zm3.44,9.63a0.66,0.66,0,0,1-.93.93L8.31,9.17,6,11.45a0.66,0.66,0,0,1-.93-0.93L7.38,8.24,5.11,6A0.66,0.66,0,0,1,6,5L8.31,7.32,10.58,5a0.66,0.66,0,0,1,.93.93L9.24,8.24Z" transform="translate(-0.82 -0.89)"/>
	</symbol>

  <symbol id="approve" viewBox="0 0 20 20">
    <g>
      <path class="st0" d="M7.1,18.3l-6.7-6.9c-0.2-0.2-0.2-0.5,0-0.7L1.1,10c0.2-0.2,0.5-0.2,0.7,0l5.1,5.2c0.2,0.2,0.6,0.2,0.8-0.1
			l10-14c0.2-0.2,0.5-0.3,0.7-0.1l0.8,0.6c0.2,0.2,0.3,0.5,0.1,0.7l-11.4,16C7.7,18.5,7.4,18.5,7.1,18.3z"/>
    </g>
  </symbol>
  <symbol id="associated-parties" viewBox="0 0 20 20">
    <path class="st0" d="M16.8,2.5V4c0,0.6-0.5,1-1,1c-0.6,0-1-0.5-1-1V2.5h-1.9V4c0,0.6-0.5,1-1,1c-0.6,0-1-0.5-1-1V2.5H9.2V4c0,0.6-0.5,1-1,1s-1-0.5-1-1V2.5H5.3V4c0,0.6-0.5,1-1,1c-0.6,0-1-0.5-1-1V2.5H2.3v15.4h15.4V2.5H16.8z M10,6.6c1.2,0,2.2,1,2.2,2.2S11.2,11,10,11c-1.2,0-2.2-1-2.2-2.2S8.8,6.6,10,6.6z M4.9,17c0-2.8,2.3-5.1,5.1-5.1c2.8,0,5.1,2.3,5.1,5.1H4.9z"/>
  </symbol>

</svg>



